<svg width="512" height="512" viewBox="0 0 512 512" fill="none" xmlns="http://www.w3.org/2000/svg">
  <rect width="512" height="512" rx="116" fill="#07090D"/>
  <circle cx="256" cy="256" r="176" fill="#0D1118"/>
  <path
    d="M382 155C333 103 246 90 181 132C116 174 91 259 124 329C158 402 240 437 315 410"
    stroke="url(#outer-aurora)"
    stroke-width="34"
    stroke-linecap="round"
  />
  <path
    d="M368 185C332 148 269 135 220 160C169 186 140 241 151 298C162 355 211 397 269 401"
    stroke="#111827"
    stroke-width="24"
    stroke-linecap="round"
  />
  <path
    d="M257 118L375 323H139L257 118Z"
    fill="url(#core-fill)"
  />
  <path
    d="M257 118L139 323H257V118Z"
    fill="#141B29"
  />
  <path
    d="M257 118L375 323H257V118Z"
    fill="#0E2530"
  />
  <path
    d="M214 225L181 258L214 291"
    stroke="#D9E4FF"
    stroke-width="22"
    stroke-linecap="round"
    stroke-linejoin="round"
  />
  <path
    d="M298 225L331 258L298 291"
    stroke="#D9E4FF"
    stroke-width="22"
    stroke-linecap="round"
    stroke-linejoin="round"
  />
  <path
    d="M270 207L242 309"
    stroke="#4EE7C7"
    stroke-width="20"
    stroke-linecap="round"
  />
  <path
    d="M182 350H330"
    stroke="url(#base-line)"
    stroke-width="18"
    stroke-linecap="round"
  />
  <defs>
    <linearGradient id="outer-aurora" x1="117" y1="393" x2="382" y2="128" gradientUnits="userSpaceOnUse">
      <stop stop-color="#1A2333"/>
      <stop offset="0.42" stop-color="#32316D"/>
      <stop offset="0.74" stop-color="#126B78"/>
      <stop offset="1" stop-color="#42DDA8"/>
    </linearGradient>
    <linearGradient id="core-fill" x1="139" y1="118" x2="375" y2="323" gradientUnits="userSpaceOnUse">
      <stop stop-color="#212A43"/>
      <stop offset="0.5" stop-color="#123346"/>
      <stop offset="1" stop-color="#10251D"/>
    </linearGradient>
    <linearGradient id="base-line" x1="182" y1="350" x2="330" y2="350" gradientUnits="userSpaceOnUse">
      <stop stop-color="#2D315F"/>
      <stop offset="0.52" stop-color="#207783"/>
      <stop offset="1" stop-color="#4EE7C7"/>
    </linearGradient>
  </defs>
</svg>
